<?xml version="1.0" standalone="no"?>
<!DOCTYPE svg PUBLIC "-//W3C//DTD SVG 20010904//EN"
 "http://www.w3.org/TR/2001/REC-SVG-20010904/DTD/svg10.dtd">
<svg version="1.0" xmlns="http://www.w3.org/2000/svg"
 width="512.000000pt" height="512.000000pt" viewBox="0 0 512.000000 512.000000"
 preserveAspectRatio="xMidYMid meet">

<g transform="translate(0.000000,512.000000) scale(0.100000,-0.100000)"
fill="#000000" stroke="#000">
<path d="M1692 4604 c-56 -21 -141 -99 -175 -162 -15 -28 -97 -241 -181 -474
-85 -232 -162 -440 -170 -460 l-16 -38 -178 0 c-195 0 -263 -11 -341 -57 -68
-40 -129 -107 -164 -181 -30 -63 -32 -74 -32 -177 0 -100 3 -115 28 -167 45
-91 107 -153 201 -198 l81 -39 158 -1023 c88 -563 163 -1040 168 -1060 19 -74
-106 -68 1489 -68 1595 0 1470 -6 1489 68 5 20 80 497 168 1060 l158 1023 81
39 c94 45 156 107 201 198 26 52 28 67 28 167 0 103 -2 114 -32 177 -35 74
-96 141 -164 181 -78 46 -146 57 -341 57 l-178 0 -16 38 c-8 20 -84 226 -169
458 -84 231 -163 440 -175 463 -54 106 -175 191 -272 191 -104 0 -209 -66
-252 -159 -17 -37 -21 -65 -21 -146 l0 -100 142 -370 141 -370 -394 -3 c-217
-1 -571 -1 -788 0 l-394 3 140 370 c126 330 141 378 146 446 5 91 -14 166 -57
226 -60 83 -207 124 -309 87z m156 -170 c35 -23 55 -80 49 -135 -3 -25 -61
-193 -130 -373 l-124 -327 -27 22 c-39 30 -119 59 -166 59 -22 0 -40 3 -40 6
0 8 214 598 235 648 44 105 130 147 203 100z m1525 12 c38 -15 82 -64 102
-112 21 -50 235 -640 235 -648 0 -3 -18 -6 -40 -6 -47 0 -127 -29 -166 -59
l-27 -22 -125 328 c-76 202 -126 347 -129 378 -5 64 19 113 67 137 42 22 42
22 83 4z m-1863 -954 c96 -70 62 -216 -54 -229 -85 -10 -146 42 -146 124 0
105 116 166 200 105z m2225 14 c66 -28 96 -123 59 -186 -52 -87 -191 -77 -230
17 -27 65 4 140 70 169 40 17 59 17 101 0z m-2567 -239 c19 -53 78 -113 139
-144 76 -37 173 -38 250 -4 58 26 127 93 149 147 l14 34 839 0 839 0 22 -44
c26 -54 87 -111 149 -139 63 -29 168 -29 233 0 57 26 132 101 150 149 l12 35
197 -3 196 -3 49 -30 c160 -99 149 -338 -20 -428 l-41 -22 -1764 -3 c-1984 -3
-1835 -8 -1915 72 -96 95 -101 232 -12 333 67 76 91 83 311 83 l191 0 12 -33z
m3038 -644 c-3 -16 -71 -449 -151 -963 -79 -514 -147 -950 -150 -968 l-6 -32
-1339 0 -1339 0 -6 32 c-3 18 -71 454 -150 968 -80 514 -148 947 -151 963 l-6
27 1652 0 1652 0 -6 -27z"/>
<path d="M1615 2269 c-45 -13 -105 -67 -126 -113 -17 -38 -19 -75 -19 -501 0
-517 0 -510 75 -572 51 -42 106 -56 212 -52 79 4 96 8 138 34 36 22 57 45 77
84 l28 53 0 452 0 451 -24 50 c-43 93 -106 125 -241 124 -49 0 -103 -5 -120
-10z m211 -174 c11 -15 14 -96 14 -441 l0 -423 -27 -21 c-24 -19 -38 -21 -92
-18 -47 3 -67 9 -77 23 -11 15 -14 98 -14 442 0 417 0 423 21 444 18 18 30 21
91 17 54 -3 73 -8 84 -23z"/>
<path d="M2430 2264 c-56 -24 -109 -82 -125 -138 -22 -74 -22 -869 0 -943 18
-61 83 -126 141 -142 50 -14 178 -14 229 0 56 15 128 92 143 152 19 74 16 869
-3 933 -17 57 -70 115 -127 139 -50 20 -210 20 -258 -1z m208 -160 l22 -15 0
-434 0 -434 -22 -15 c-30 -21 -126 -21 -156 0 l-22 15 0 434 0 434 22 15 c14
10 44 16 78 16 34 0 64 -6 78 -16z"/>
<path d="M3262 2265 c-60 -26 -94 -57 -118 -109 l-24 -51 0 -451 0 -452 28
-53 c20 -39 41 -62 77 -84 42 -26 59 -30 138 -34 106 -4 161 10 212 52 75 62
75 55 75 572 0 426 -2 463 -19 501 -22 48 -82 101 -131 114 -53 15 -200 12
-238 -5z m208 -165 c19 -19 20 -33 20 -443 0 -344 -3 -427 -14 -442 -10 -14
-30 -20 -77 -23 -54 -3 -68 -1 -91 18 l-28 21 0 423 c0 436 1 445 40 459 8 3
41 6 73 6 44 1 61 -3 77 -19z"/>
</g>
</svg>
