<?xml version="1.0" standalone="no"?>
<!DOCTYPE svg PUBLIC "-//W3C//DTD SVG 20010904//EN"
 "http://www.w3.org/TR/2001/REC-SVG-20010904/DTD/svg10.dtd">
<svg version="1.0" xmlns="http://www.w3.org/2000/svg"
 width="512.000000pt" height="512.000000pt" viewBox="0 0 512.000000 512.000000"
 preserveAspectRatio="xMidYMid meet">

<g transform="translate(0.000000,512.000000) scale(0.100000,-0.100000)"
fill="#000000" stroke="none">
<path d="M1994 5096 c-84 -39 -134 -127 -134 -237 l0 -48 -392 -3 -393 -3 -58
-27 c-32 -15 -77 -42 -99 -60 -49 -38 -115 -137 -124 -184 -6 -31 -9 -34 -41
-34 -41 0 -83 -37 -83 -75 0 -36 42 -75 80 -75 16 0 30 -3 31 -7 0 -5 8 -112
17 -240 l17 -231 -22 -20 c-31 -28 -29 -67 5 -102 l28 -28 112 -1578 c62 -869
115 -1601 118 -1629 6 -49 5 -50 -25 -62 -65 -24 -63 -110 4 -134 32 -12 33
-15 40 -78 13 -130 85 -221 189 -236 22 -3 621 -5 1331 -3 l1290 3 47 28 c65
38 98 96 111 196 10 75 11 79 42 90 67 24 69 110 4 134 -30 12 -30 12 -24 72
8 85 104 1446 107 1523 3 59 1 65 -26 89 -32 27 -67 25 -99 -6 -17 -17 -25
-102 -78 -837 -32 -451 -59 -822 -59 -826 0 -5 -347 -8 -770 -8 l-771 0 -26
-26 c-20 -20 -24 -31 -19 -57 3 -18 16 -40 27 -49 20 -17 72 -18 786 -18 l765
0 -6 -58 c-5 -43 -13 -63 -32 -79 l-25 -23 -1279 0 -1279 0 -25 22 c-19 17
-27 37 -32 80 l-6 58 434 0 c425 0 436 0 462 21 33 26 36 79 6 109 -19 19 -33
20 -464 20 l-444 0 -6 68 c-9 98 -226 3146 -226 3176 l0 26 1580 0 1580 0 0
-22 c0 -13 -21 -315 -46 -671 l-46 -648 22 -24 c13 -14 31 -27 41 -30 21 -7
74 18 82 38 3 8 27 315 53 682 l48 667 28 28 c34 35 36 74 5 102 l-22 20 17
231 c9 128 17 235 17 240 1 4 15 7 31 7 38 0 80 39 80 75 0 38 -42 75 -85 75
-27 0 -35 4 -35 18 0 61 -96 190 -175 236 -87 52 -129 56 -527 56 l-368 0 0
48 c0 111 -50 199 -134 238 l-51 24 -515 0 -515 0 -51 -24z m1071 -132 c25
-10 45 -58 45 -109 l0 -45 -550 0 -550 0 0 45 c0 48 20 99 42 108 19 8 993 8
1013 1z m957 -314 c50 -14 117 -67 140 -110 l18 -35 -436 -5 -436 -5 -19 -24
c-26 -32 -24 -67 6 -96 l24 -25 435 0 435 0 -5 -62 c-3 -35 -11 -139 -17 -233
l-12 -170 -1595 0 -1595 0 -12 170 c-6 94 -14 198 -17 233 l-5 62 1056 0 1057
0 23 22 c33 30 31 80 -3 107 -27 21 -30 21 -1076 21 l-1048 0 20 39 c24 48 74
88 132 106 35 11 308 14 1468 14 953 1 1437 -3 1462 -9z"/>
<path d="M1420 3554 c-131 -35 -190 -108 -190 -236 0 -156 131 -2485 142
-2528 18 -67 86 -136 154 -156 69 -20 128 -11 196 30 68 40 99 99 105 193 2
38 -18 622 -45 1299 -48 1205 -49 1232 -71 1278 -28 58 -82 102 -145 121 -60
18 -75 18 -146 -1z m139 -168 l25 -25 49 -1256 c27 -691 46 -1267 43 -1281 -9
-34 -67 -61 -103 -48 -64 22 -56 -55 -128 1269 -36 666 -65 1235 -65 1266 0
45 4 60 23 76 43 40 115 39 156 -1z"/>
<path d="M2140 3554 c-84 -23 -138 -62 -171 -126 -25 -49 -25 -67 6 -1398 29
-1276 27 -1225 53 -1275 90 -176 338 -175 419 2 l26 56 -9 1286 -9 1286 -23
48 c-30 59 -82 103 -146 122 -60 18 -75 18 -146 -1z m140 -170 l25 -24 6 -743
c4 -408 7 -980 8 -1270 l1 -528 -25 -24 c-31 -32 -75 -32 -112 -1 -25 21 -28
31 -31 97 -6 153 -52 2220 -52 2345 0 123 1 132 23 151 42 40 115 38 157 -3z"/>
<path d="M2860 3554 c-85 -23 -137 -62 -173 -129 l-22 -40 -9 -1286 -9 -1286
26 -56 c81 -177 329 -178 419 -2 26 50 24 -1 53 1275 32 1361 32 1341 1 1405
-27 59 -46 78 -106 104 -65 28 -117 32 -180 15z m138 -167 c21 -19 22 -29 22
-151 0 -123 -46 -2188 -52 -2343 -4 -79 -20 -107 -66 -116 -40 -8 -90 17 -98
48 -4 15 -3 590 2 1280 l9 1253 24 26 c13 14 33 27 45 29 37 8 90 -4 114 -26z"/>
<path d="M3583 3556 c-82 -20 -141 -64 -176 -131 -19 -38 -22 -101 -69 -1270
-27 -676 -47 -1260 -45 -1298 6 -94 37 -153 105 -193 101 -61 197 -53 282 23
38 34 53 57 65 96 18 60 150 2417 142 2547 -6 115 -40 171 -127 209 -63 27
-116 32 -177 17z m134 -168 c19 -17 23 -32 23 -77 0 -31 -29 -600 -66 -1266
-52 -970 -68 -1215 -80 -1233 -31 -47 -93 -50 -134 -7 l-23 24 50 1265 c46
1204 50 1266 68 1287 11 12 29 25 40 30 31 13 97 1 122 -23z"/>
</g>
</svg>
